<svg xmlns="http://www.w3.org/2000/svg" viewBox="0 0 1400 900">
<defs><marker id="one" viewBox="0 0 10 10" refX="5" refY="5" markerWidth="5" markerHeight="5"><path d="M5 0V10" stroke="#475569" stroke-width="2"/></marker><style>.h{font:700 25px Segoe UI,Arial;fill:#0f172a}.n{font:700 14px Segoe UI,Arial;fill:white}.f{font:12px Consolas,monospace;fill:#334155}.l{font:600 11px Segoe UI,Arial;fill:#475569}.r{stroke:#64748b;stroke-width:1.8;fill:none}</style></defs>
<rect width="1400" height="900" fill="#f8fafc"/><text x="700" y="40" text-anchor="middle" class="h">MÔ HÌNH DỮ LIỆU QUAN HỆ RÚT GỌN</text>
<!-- entities -->
<g transform="translate(60 100)"><rect width="240" height="145" rx="10" fill="white" stroke="#7c3aed" stroke-width="2"/><path d="M0 38H240" stroke="#7c3aed"/><rect width="240" height="38" rx="10" fill="#7c3aed"/><text x="120" y="25" text-anchor="middle" class="n">USER</text><text x="15" y="64" class="f">id PK</text><text x="15" y="88" class="f">email, status</text><text x="15" y="112" class="f">password_hash, mfa</text><text x="15" y="136" class="f">created_at</text></g>
<g transform="translate(390 100)"><rect width="260" height="145" rx="10" fill="white" stroke="#7c3aed" stroke-width="2"/><path d="M0 38H260" stroke="#7c3aed"/><rect width="260" height="38" rx="10" fill="#7c3aed"/><text x="130" y="25" text-anchor="middle" class="n">ORGANIZATION</text><text x="15" y="64" class="f">id PK</text><text x="15" y="88" class="f">name, status</text><text x="15" y="112" class="f">retention_days</text><text x="15" y="136" class="f">quota_concurrent_sessions</text></g>
<g transform="translate(740 100)"><rect width="260" height="145" rx="10" fill="white" stroke="#7c3aed" stroke-width="2"/><path d="M0 38H260" stroke="#7c3aed"/><rect width="260" height="38" rx="10" fill="#7c3aed"/><text x="130" y="25" text-anchor="middle" class="n">MEMBERSHIP / ROLE</text><text x="15" y="64" class="f">user_id FK</text><text x="15" y="88" class="f">org_id FK</text><text x="15" y="112" class="f">role, capability</text><text x="15" y="136" class="f">status, expires_at</text></g>
<g transform="translate(1090 100)"><rect width="250" height="145" rx="10" fill="white" stroke="#7c3aed" stroke-width="2"/><path d="M0 38H250" stroke="#7c3aed"/><rect width="250" height="38" rx="10" fill="#7c3aed"/><text x="125" y="25" text-anchor="middle" class="n">AUDIT_LOG</text><text x="15" y="64" class="f">id PK, actor_id FK</text><text x="15" y="88" class="f">org_id FK, action</text><text x="15" y="112" class="f">resource_type / id</text><text x="15" y="136" class="f">timestamp, metadata</text></g>
<g transform="translate(160 370)"><rect width="270" height="165" rx="10" fill="white" stroke="#0284c7" stroke-width="2"/><path d="M0 38H270" stroke="#0284c7"/><rect width="270" height="38" rx="10" fill="#0284c7"/><text x="135" y="25" text-anchor="middle" class="n">EXAM</text><text x="15" y="64" class="f">id PK, org_id FK</text><text x="15" y="88" class="f">name, status, version</text><text x="15" y="112" class="f">join_code, expires_at</text><text x="15" y="136" class="f">effective_policy</text><text x="15" y="158" class="f">start_at, end_at</text></g>
<g transform="translate(565 370)"><rect width="270" height="165" rx="10" fill="white" stroke="#0284c7" stroke-width="2"/><path d="M0 38H270" stroke="#0284c7"/><rect width="270" height="38" rx="10" fill="#0284c7"/><text x="135" y="25" text-anchor="middle" class="n">EXAM_ASSIGNMENT</text><text x="15" y="64" class="f">id PK</text><text x="15" y="88" class="f">exam_id FK</text><text x="15" y="112" class="f">user_id FK</text><text x="15" y="136" class="f">role, capabilities</text><text x="15" y="158" class="f">valid_from / valid_to</text></g>
<g transform="translate(970 370)"><rect width="300" height="165" rx="10" fill="white" stroke="#0284c7" stroke-width="2"/><path d="M0 38H300" stroke="#0284c7"/><rect width="300" height="38" rx="10" fill="#0284c7"/><text x="150" y="25" text-anchor="middle" class="n">EXAM_SESSION</text><text x="15" y="64" class="f">id PK, exam_id FK</text><text x="15" y="88" class="f">candidate_identity_id FK</text><text x="15" y="112" class="f">status, risk_score_current</text><text x="15" y="136" class="f">integrity_score_current</text><text x="15" y="158" class="f">last_seen_at, device_state</text></g>
<g transform="translate(130 690)"><rect width="270" height="130" rx="10" fill="white" stroke="#d97706" stroke-width="2"/><path d="M0 38H270" stroke="#d97706"/><rect width="270" height="38" rx="10" fill="#d97706"/><text x="135" y="25" text-anchor="middle" class="n">CANDIDATE_IDENTITY</text><text x="15" y="64" class="f">id PK, external_id</text><text x="15" y="88" class="f">display_name</text><text x="15" y="112" class="f">identity_status / hash</text></g>
<g transform="translate(565 690)"><rect width="270" height="130" rx="10" fill="white" stroke="#d97706" stroke-width="2"/><path d="M0 38H270" stroke="#d97706"/><rect width="270" height="38" rx="10" fill="#d97706"/><text x="135" y="25" text-anchor="middle" class="n">INCIDENT_REVIEW</text><text x="15" y="64" class="f">id PK, session_id FK</text><text x="15" y="88" class="f">reviewer_id FK, verdict</text><text x="15" y="112" class="f">note, reviewed_at</text></g>
<g transform="translate(970 690)"><rect width="270" height="130" rx="10" fill="white" stroke="#d97706" stroke-width="2"/><path d="M0 38H270" stroke="#d97706"/><rect width="270" height="38" rx="10" fill="#d97706"/><text x="135" y="25" text-anchor="middle" class="n">REPORT_JOB</text><text x="15" y="64" class="f">id PK, session_id FK</text><text x="15" y="88" class="f">status, requested_by</text><text x="15" y="112" class="f">output_path, error</text></g>
<!-- relationships -->
<path d="M300 170H390" class="r"/><text x="345" y="160" text-anchor="middle" class="l">M:N qua membership</text><path d="M650 170H740" class="r"/><path d="M1000 170H1090" class="r"/><text x="1045" y="160" text-anchor="middle" class="l">ghi audit</text>
<path d="M520 245C520 310 360 310 295 370" class="r"/><text x="430" y="306" class="l">1:N sở hữu</text><path d="M295 535C380 600 610 600 650 690" class="r" opacity="0"/>
<path d="M300 245C300 315 630 305 650 370" class="r"/><text x="430" y="330" class="l">User được phân công</text><path d="M430 452H565" class="r"/><text x="497" y="442" text-anchor="middle" class="l">1:N assignment</text><path d="M835 452H970" class="r"/><text x="902" y="442" text-anchor="middle" class="l">phạm vi kỳ thi</text>
<path d="M430 500C650 620 930 600 1030 535" class="r"/><text x="700" y="610" text-anchor="middle" class="l">Exam 1:N Session</text><path d="M400 755C650 650 850 600 1000 535" class="r"/><text x="610" y="672" class="l">Candidate xác thực phiên</text><path d="M1070 535C1010 630 810 640 770 690" class="r"/><text x="890" y="650" class="l">1:N review</text><path d="M1150 535V690" class="r"/><text x="1162" y="625" class="l">1:N report job</text>
<text x="700" y="865" text-anchor="middle" class="l">Evidence chuỗi thời gian và snapshot được lưu ngoài CSDL quan hệ, liên kết bằng session_id.</text>
</svg>
